<svg xmlns="http://www.w3.org/2000/svg" xmlns:xlink="http://www.w3.org/1999/xlink" xmlns:lucid="lucid" width="1024" height="2215"><g transform="translate(-428 -129)" lucid:page-tab-id="EYusLKMYoq~4"><path d="M0 0h1870.87v2581.67H0z" fill="#fff"/><path d="M785.43 346c0-3.3 2.7-6 6-6h608c3.32 0 6 2.7 6 6v1948c0 3.3-2.68 6-6 6h-608c-3.3 0-6-2.7-6-6z" stroke="#5e5e5e" stroke-width="3" fill-opacity="0"/><use xlink:href="#a" transform="matrix(1,0,0,1,793.4330708661416,348) translate(166.69135802469137 17.77777777777778)"/><use xlink:href="#b" transform="matrix(1,0,0,1,793.4330708661416,348) translate(241.38271604938274 17.77777777777778)"/><use xlink:href="#c" transform="matrix(1,0,0,1,793.4330708661416,348) translate(363.2962962962963 17.77777777777778)"/><path d="M525.18 859.75c0 10.9-8.84 19.75-19.75 19.75-10.9 0-19.75-8.84-19.75-19.75 0-10.9 8.85-19.75 19.75-19.75s19.75 8.84 19.75 19.75z" stroke="#5e5e5e" stroke-width="3" fill="#fff"/><path d="M505.43 879.5v49.3c0 3.3 1.44 8.27 3.2 11.07l36.8 58.13m-40-63.2l-40 63.2m0-98.75h80" stroke="#5e5e5e" stroke-width="3" fill="none"/><path d="M465.43 846c0-3.3 2.7-6 6-6h68c3.32 0 6 2.7 6 6v168c0 3.3-2.68 6-6 6h-68c-3.3 0-6-2.7-6-6z" fill="none"/><use xlink:href="#d" transform="matrix(1,0,0,1,385.43307086614163,998) translate(89.25925925925927 17.77777777777778)"/><path d="M1220.43 490c0 27.6-55.96 50-125 50-69.03 0-125-22.4-125-50s55.97-50 125-50c69.04 0 125 22.4 125 50z" stroke="#5e5e5e" stroke-width="3" fill="#fff"/><use xlink:href="#e" transform="matrix(1,0,0,1,970.4330708661416,440) translate(36.70499999999999 55.025)"/><use xlink:href="#f" transform="matrix(1,0,0,1,970.4330708661416,440) translate(79.655 55.025)"/><use xlink:href="#g" transform="matrix(1,0,0,1,970.4330708661416,440) translate(132.505 55.025)"/><path d="M1220.43 610c0 27.6-55.96 50-125 50-69.03 0-125-22.4-125-50s55.97-50 125-50c69.04 0 125 22.4 125 50z" stroke="#5e5e5e" stroke-width="3" fill="#fff"/><use xlink:href="#h" transform="matrix(1,0,0,1,970.4330708661416,560) translate(33.20499999999999 55.025)"/><use xlink:href="#f" transform="matrix(1,0,0,1,970.4330708661416,560) translate(83.155 55.025)"/><use xlink:href="#g" transform="matrix(1,0,0,1,970.4330708661416,560) translate(136.005 55.025)"/><path d="M1220.43 730c0 27.6-55.96 50-125 50-69.03 0-125-22.4-125-50s55.97-50 125-50c69.04 0 125 22.4 125 50z" stroke="#5e5e5e" stroke-width="3" fill="#fff"/><use xlink:href="#i" transform="matrix(1,0,0,1,970.4330708661416,680) translate(86.58 55.025)"/><use xlink:href="#j" transform="matrix(1,0,0,1,970.4330708661416,680) translate(129.48 55.025)"/><path d="M1220.43 850c0 27.6-55.96 50-125 50-69.03 0-125-22.4-125-50s55.97-50 125-50c69.04 0 125 22.4 125 50z" stroke="#5e5e5e" stroke-width="3" fill="#fff"/><use xlink:href="#k" transform="matrix(1,0,0,1,970.4330708661416,800) translate(61.779999999999994 55.025)"/><use xlink:href="#l" transform="matrix(1,0,0,1,970.4330708661416,800) translate(91.38 55.025)"/><path d="M1220.43 970c0 27.6-55.96 50-125 50-69.03 0-125-22.4-125-50s55.97-50 125-50c69.04 0 125 22.4 125 50z" stroke="#5e5e5e" stroke-width="3" fill="#fff"/><use xlink:href="#m" transform="matrix(1,0,0,1,970.4330708661416,920) translate(89.055 55.025)"/><use xlink:href="#n" transform="matrix(1,0,0,1,970.4330708661416,920) translate(136.005 55.025)"/><path d="M1220.43 1090c0 27.6-55.96 50-125 50-69.03 0-125-22.4-125-50s55.97-50 125-50c69.04 0 125 22.4 125 50z" stroke="#5e5e5e" stroke-width="3" fill="#fff"/><use xlink:href="#k" transform="matrix(1,0,0,1,970.4330708661416,1040) translate(30.855 42.525)"/><use xlink:href="#o" transform="matrix(1,0,0,1,970.4330708661416,1040) translate(60.455 42.525)"/><use xlink:href="#p" transform="matrix(1,0,0,1,970.4330708661416,1040) translate(155.305 42.525)"/><use xlink:href="#g" transform="matrix(1,0,0,1,970.4330708661416,1040) translate(84.60499999999999 64.125)"/><path d="M1215.43 1210c0 27.6-55.96 50-125 50-69.03 0-125-22.4-125-50s55.97-50 125-50c69.04 0 125 22.4 125 50z" stroke="#5e5e5e" stroke-width="3" fill="#fff"/><use xlink:href="#q" transform="matrix(1,0,0,1,965.4330708661416,1160) translate(91.58 55.025)"/><use xlink:href="#n" transform="matrix(1,0,0,1,965.4330708661416,1160) translate(133.48 55.025)"/><path d="M1210.43 1750c0 27.6-55.96 50-125 50-69.03 0-125-22.4-125-50s55.97-50 125-50c69.04 0 125 22.4 125 50z" stroke="#5e5e5e" stroke-width="3" fill="#fff"/><use xlink:href="#r" transform="matrix(1,0,0,1,960.4330708661414,1700) translate(57.62999999999999 55.025)"/><use xlink:href="#s" transform="matrix(1,0,0,1,960.4330708661414,1700) translate(111.58 55.025)"/><path d="M1215.43 1360c0 27.6-55.96 50-125 50-69.03 0-125-22.4-125-50s55.97-50 125-50c69.04 0 125 22.4 125 50z" stroke="#5e5e5e" stroke-width="3" fill="#fff"/><use xlink:href="#t" transform="matrix(1,0,0,1,965.4330708661416,1310) translate(76.555 55.025)"/><use xlink:href="#u" transform="matrix(1,0,0,1,965.4330708661416,1310) translate(123.505 55.025)"/><path d="M1210.43 1480c0 27.6-55.96 50-125 50-69.03 0-125-22.4-125-50s55.97-50 125-50c69.04 0 125 22.4 125 50z" stroke="#5e5e5e" stroke-width="3" fill="#fff"/><use xlink:href="#m" transform="matrix(1,0,0,1,960.4330708661414,1430) translate(19.604999999999983 55.025)"/><use xlink:href="#v" transform="matrix(1,0,0,1,960.4330708661414,1430) translate(66.55499999999998 55.025)"/><path d="M1215.43 1600c0 27.6-55.96 50-125 50-69.03 0-125-22.4-125-50s55.97-50 125-50c69.04 0 125 22.4 125 50z" stroke="#5e5e5e" stroke-width="3" fill="#fff"/><use xlink:href="#w" transform="matrix(1,0,0,1,965.4330708661416,1550) translate(77.555 55.025)"/><use xlink:href="#x" transform="matrix(1,0,0,1,965.4330708661416,1550) translate(121.505 55.025)"/><path d="M507.67 918.12L968.2 490.68M507.68 918.1l-2.95 2.74" stroke="#5e5e5e" stroke-width="2" fill="none"/><path d="M968.95 489.08l-.02.9v.5l.04.85-.1.1-1.37-1.47 1.48-1.37" fill="#5e5e5e"/><path d="M507.76 918.24L968.1 610.56M507.8 918.23l-3.36 2.24" stroke="#5e5e5e" stroke-width="2" fill="none"/><path d="M968.95 609.08l-.02.9v.5l.04.7-.33.22-1.12-1.66 1.45-.97" fill="#5e5e5e"/><path d="M507.86 918.42L968 730.38M507.88 918.4l-3.72 1.53" stroke="#5e5e5e" stroke-width="2" fill="none"/><path d="M968.95 729.08l-.02.9v.5l.03.6-.6.23-.75-1.84 1.36-.55" fill="#5e5e5e"/><path d="M507.92 918.65l460.02-68.5M507.95 918.65l-3.98.6" stroke="#5e5e5e" stroke-width="2" fill="none"/><path d="M968.95 849.08l-.02.9v.5l.03.53-.9.14-.3-1.98 1.2-.17" fill="#5e5e5e"/><path d="M507.93 918.9l460 51M507.95 918.9l-4-.43" stroke="#5e5e5e" stroke-width="2" fill="none"/><path d="M968.96 969v.08l-.03.9v.5l.03.53-1.16-.12.22-2" fill="#5e5e5e"/><path d="M507.87 919.15L968 1089.65M507.9 919.15l-3.78-1.4" stroke="#5e5e5e" stroke-width="2" fill="none"/><path d="M968.96 1088.94v.14l-.03.9v.5l.03.6-1.34-.5.7-1.87" fill="#5e5e5e"/><path d="M507.78 919.34l455.3 290.12M507.8 919.35l-3.4-2.16" stroke="#5e5e5e" stroke-width="2" fill="none"/><path d="M963.97 1208.84l-.02.24-.02.9v.5l.04.73-1.44-.9 1.08-1.7" fill="#5e5e5e"/><path d="M507.43 919.67l463.3 807.12M507.44 919.7l-2-3.5" stroke="#5e5e5e" stroke-width="2" fill="none"/><path d="M972.02 1727l-.14.1-1.4 1.22-.62-1.06 1.74-1" fill="#5e5e5e"/><path d="M507.65 919.5l455.56 439.8M507.67 919.5l-2.9-2.8" stroke="#5e5e5e" stroke-width="2" fill="none"/><path d="M963.98 1358.65l-.03.43-.02.9v.5l.05.9v.06l-1.48-1.43 1.4-1.43" fill="#5e5e5e"/><path d="M507.56 919.58l450.75 559.64M507.58 919.6l-2.53-3.14" stroke="#5e5e5e" stroke-width="2" fill="none"/><path d="M958.95 1479.08l-.02.9v.5l.05.9.02.3-1.5-1.85 1.48-1.18" fill="#5e5e5e"/><path d="M507.5 919.63l455.88 679.54M507.5 919.65l-2.24-3.34" stroke="#5e5e5e" stroke-width="2" fill="none"/><path d="M963.95 1599.08l-.02.9v.5l.05.9.04.55-1.5-2.22 1.45-.96" fill="#5e5e5e"/><path d="M565.18 1959.75c0 10.9-8.84 19.75-19.75 19.75-10.9 0-19.75-8.84-19.75-19.75 0-10.9 8.85-19.75 19.75-19.75s19.75 8.84 19.75 19.75z" stroke="#5e5e5e" stroke-width="3" fill="#fff"/><path d="M545.43 1979.5v49.3c0 3.3 1.44 8.27 3.2 11.07l36.8 58.13m-40-63.2l-40 63.2m0-98.75h80" stroke="#5e5e5e" stroke-width="3" fill="none"/><path d="M505.43 1946c0-3.3 2.7-6 6-6h68c3.32 0 6 2.7 6 6v168c0 3.3-2.68 6-6 6h-68c-3.3 0-6-2.7-6-6z" fill="none"/><use xlink:href="#y" transform="matrix(1,0,0,1,425.43307086614163,2098) translate(92.68518518518519 17.77777777777778)"/><path d="M1215.43 1910c0 27.6-55.96 50-125 50-69.03 0-125-22.4-125-50s55.97-50 125-50c69.04 0 125 22.4 125 50z" stroke="#5e5e5e" stroke-width="3" fill="#fff"/><use xlink:href="#z" transform="matrix(1,0,0,1,965.4330708661414,1860) translate(78.58 55.025)"/><use xlink:href="#A" transform="matrix(1,0,0,1,965.4330708661414,1860) translate(114.47999999999999 55.025)"/><path d="M1215.43 2050c0 27.6-55.96 50-125 50-69.03 0-125-22.4-125-50s55.97-50 125-50c69.04 0 125 22.4 125 50z" stroke="#5e5e5e" stroke-width="3" fill="#fff"/><use xlink:href="#B" transform="matrix(1,0,0,1,965.4330708661414,2000) translate(84.08 55.025)"/><use xlink:href="#C" transform="matrix(1,0,0,1,965.4330708661414,2000) translate(117.97999999999999 55.025)"/><path d="M1220.43 2190c0 27.6-55.96 50-125 50-69.03 0-125-22.4-125-50s55.97-50 125-50c69.04 0 125 22.4 125 50z" stroke="#5e5e5e" stroke-width="3" fill="#fff"/><use xlink:href="#D" transform="matrix(1,0,0,1,970.4330708661416,2140) translate(91.055 55.025)"/><use xlink:href="#E" transform="matrix(1,0,0,1,970.4330708661416,2140) translate(132.005 55.025)"/><path d="M547.9 2018.55l415.07-108.3M547.93 2018.54l-3.9 1.02" stroke="#5e5e5e" stroke-width="2" fill="none"/><path d="M963.95 1909.08l-.02.9v.5l.03.55-.77.2-.5-1.94 1.26-.34" fill="#5e5e5e"/><path d="M544.93 2018.87l418 31.06M544.96 2018.87l-4.02-.3" stroke="#5e5e5e" stroke-width="2" fill="none"/><path d="M963.96 2049v.08l-.03.9v.5l.03.52-1.12-.08.14-2" fill="#5e5e5e"/><path d="M544.86 2019.17L968 2189.63M544.88 2019.18l-3.73-1.5" stroke="#5e5e5e" stroke-width="2" fill="none"/><path d="M968.96 2188.93v.15l-.03.9v.5l.03.6-1.35-.54.76-1.85" fill="#5e5e5e"/><path d="M547.8 2018.3l430.44-239.75M547.83 2018.3l-3.52 1.96" stroke="#5e5e5e" stroke-width="2" fill="none"/><path d="M980.07 1778.67l-1.37.77-.97-1.75.42-.24" fill="#5e5e5e"/><path d="M610.43 202h240v60h-240z" fill="none"/><g><use xlink:href="#F" transform="matrix(1,0,0,1,610.4330708661416,202) translate(64.50617283950618 21.111111111111114)"/><use xlink:href="#G" transform="matrix(1,0,0,1,610.4330708661416,202) translate(144.62962962962962 21.111111111111114)"/><use xlink:href="#H" transform="matrix(1,0,0,1,610.4330708661416,202) translate(120 47.777777777777786)"/></g><path d="M790.43 140h340v60h-340z" fill="none"/><g><use xlink:href="#I" transform="matrix(1,0,0,1,795.4330708661416,145) translate(112.99444444444447 29.933333333333334)"/></g><path d="M661.18 198.5c0-.4.34-.75.75-.75h597c.42 0 .75.34.75.75 0 .4-.33.75-.75.75h-597c-.4 0-.75-.34-.75-.75z" stroke="#5e5e5e" stroke-width="1.5" fill="none"/><path d="M940.43 197h320v53.2h-320z" fill="none"/><g><use xlink:href="#J" transform="matrix(1,0,0,1,945.4330708661416,202.00000000000003) translate(14.574999999999989 25.6)"/><use xlink:href="#K" transform="matrix(1,0,0,1,945.4330708661416,202.00000000000003) translate(53.57499999999999 25.6)"/><use xlink:href="#L" transform="matrix(1,0,0,1,945.4330708661416,202.00000000000003) translate(126.52499999999999 25.6)"/><use xlink:href="#M" transform="matrix(1,0,0,1,945.4330708661416,202.00000000000003) translate(163.475 25.6)"/><use xlink:href="#N" transform="matrix(1,0,0,1,945.4330708661416,202.00000000000003) translate(183.475 25.6)"/><use xlink:href="#O" transform="matrix(1,0,0,1,945.4330708661416,202.00000000000003) translate(228.475 25.6)"/><use xlink:href="#P" transform="matrix(1,0,0,1,945.4330708661416,202.00000000000003) translate(268.475 25.6)"/></g><defs><path fill="#333" d="M137 0h-34L2-248h35l83 218 83-218h36" id="Q"/><path fill="#333" d="M24-231v-30h32v30H24zM24 0v-190h32V0H24" id="R"/><path fill="#333" d="M114-163C36-179 61-72 57 0H25l-1-190h30c1 12-1 29 2 39 6-27 23-49 58-41v29" id="S"/><path fill="#333" d="M59-47c-2 24 18 29 38 22v24C64 9 27 4 27-40v-127H5v-23h24l9-43h21v43h35v23H59v120" id="T"/><path fill="#333" d="M84 4C-5 8 30-112 23-190h32v120c0 31 7 50 39 49 72-2 45-101 50-169h31l1 190h-30c-1-10 1-25-2-33-11 22-28 36-60 37" id="U"/><path fill="#333" d="M100-194c63 0 86 42 84 106H49c0 40 14 67 53 68 26 1 43-12 49-29l28 8c-11 28-37 45-77 45C44 4 14-33 15-96c1-61 26-98 85-98zm52 81c6-60-76-77-97-28-3 7-6 17-6 28h103" id="V"/><path fill="#333" d="M24 0v-261h32V0H24" id="W"/><g id="a"><use transform="matrix(0.06172839506172839,0,0,0.06172839506172839,0,0)" xlink:href="#Q"/><use transform="matrix(0.06172839506172839,0,0,0.06172839506172839,14.382716049382715,0)" xlink:href="#R"/><use transform="matrix(0.06172839506172839,0,0,0.06172839506172839,19.25925925925926,0)" xlink:href="#S"/><use transform="matrix(0.06172839506172839,0,0,0.06172839506172839,26.604938271604937,0)" xlink:href="#T"/><use transform="matrix(0.06172839506172839,0,0,0.06172839506172839,32.77777777777778,0)" xlink:href="#U"/><use transform="matrix(0.06172839506172839,0,0,0.06172839506172839,45.123456790123456,0)" xlink:href="#V"/><use transform="matrix(0.06172839506172839,0,0,0.06172839506172839,57.46913580246913,0)" xlink:href="#W"/><use transform="matrix(0.06172839506172839,0,0,0.06172839506172839,62.34567901234568,0)" xlink:href="#T"/></g><path fill="#333" d="M185-189c-5-48-123-54-124 2 14 75 158 14 163 119 3 78-121 87-175 55-17-10-28-26-33-46l33-7c5 56 141 63 141-1 0-78-155-14-162-118-5-82 145-84 179-34 5 7 8 16 11 25" id="X"/><path fill="#333" d="M210-169c-67 3-38 105-44 169h-31v-121c0-29-5-50-35-48C34-165 62-65 56 0H25l-1-190h30c1 10-1 24 2 32 10-44 99-50 107 0 11-21 27-35 58-36 85-2 47 119 55 194h-31v-121c0-29-5-49-35-48" id="Y"/><path fill="#333" d="M117-194c89-4 53 116 60 194h-32v-121c0-31-8-49-39-48C34-167 62-67 57 0H25l-1-190h30c1 10-1 24 2 32 11-22 29-35 61-36" id="Z"/><path fill="#333" d="M177-190C167-65 218 103 67 71c-23-6-38-20-44-43l32-5c15 47 100 32 89-28v-30C133-14 115 1 83 1 29 1 15-40 15-95c0-56 16-97 71-98 29-1 48 16 59 35 1-10 0-23 2-32h30zM94-22c36 0 50-32 50-73 0-42-14-75-50-75-39 0-46 34-46 75s6 73 46 73" id="aa"/><path fill="#333" d="M135-143c-3-34-86-38-87 0 15 53 115 12 119 90S17 21 10-45l28-5c4 36 97 45 98 0-10-56-113-15-118-90-4-57 82-63 122-42 12 7 21 19 24 35" id="ab"/><g id="b"><use transform="matrix(0.06172839506172839,0,0,0.06172839506172839,0,0)" xlink:href="#X"/><use transform="matrix(0.06172839506172839,0,0,0.06172839506172839,14.814814814814813,0)" xlink:href="#R"/><use transform="matrix(0.06172839506172839,0,0,0.06172839506172839,19.691358024691354,0)" xlink:href="#Y"/><use transform="matrix(0.06172839506172839,0,0,0.06172839506172839,38.14814814814814,0)" xlink:href="#U"/><use transform="matrix(0.06172839506172839,0,0,0.06172839506172839,50.493827160493815,0)" xlink:href="#W"/><use transform="matrix(0.06172839506172839,0,0,0.06172839506172839,55.37037037037036,0)" xlink:href="#V"/><use transform="matrix(0.06172839506172839,0,0,0.06172839506172839,67.71604938271604,0)" xlink:href="#S"/><use transform="matrix(0.06172839506172839,0,0,0.06172839506172839,75.06172839506172,0)" xlink:href="#R"/><use transform="matrix(0.06172839506172839,0,0,0.06172839506172839,79.93827160493827,0)" xlink:href="#Z"/><use transform="matrix(0.06172839506172839,0,0,0.06172839506172839,92.28395061728395,0)" xlink:href="#aa"/><use transform="matrix(0.06172839506172839,0,0,0.06172839506172839,104.62962962962963,0)" xlink:href="#ab"/></g><path fill="#333" d="M179-190L93 31C79 59 56 82 12 73V49c39 6 53-20 64-50L1-190h34L92-34l54-156h33" id="ac"/><g id="c"><use transform="matrix(0.06172839506172839,0,0,0.06172839506172839,0,0)" xlink:href="#X"/><use transform="matrix(0.06172839506172839,0,0,0.06172839506172839,14.814814814814813,0)" xlink:href="#ac"/><use transform="matrix(0.06172839506172839,0,0,0.06172839506172839,25.925925925925924,0)" xlink:href="#ab"/><use transform="matrix(0.06172839506172839,0,0,0.06172839506172839,37.03703703703704,0)" xlink:href="#T"/><use transform="matrix(0.06172839506172839,0,0,0.06172839506172839,43.20987654320988,0)" xlink:href="#V"/><use transform="matrix(0.06172839506172839,0,0,0.06172839506172839,55.55555555555556,0)" xlink:href="#Y"/></g><path fill="#333" d="M115-194c55 1 70 41 70 98S169 2 115 4C84 4 66-9 55-30l1 105H24l-1-265h31l2 30c10-21 28-34 59-34zm-8 174c40 0 45-34 45-75s-6-73-45-74c-42 0-51 32-51 76 0 43 10 73 51 73" id="ad"/><g id="d"><use transform="matrix(0.06172839506172839,0,0,0.06172839506172839,0,0)" xlink:href="#X"/><use transform="matrix(0.06172839506172839,0,0,0.06172839506172839,14.814814814814813,0)" xlink:href="#ad"/><use transform="matrix(0.06172839506172839,0,0,0.06172839506172839,27.160493827160494,0)" xlink:href="#R"/><use transform="matrix(0.06172839506172839,0,0,0.06172839506172839,32.03703703703704,0)" xlink:href="#W"/><use transform="matrix(0.06172839506172839,0,0,0.06172839506172839,36.91358024691358,0)" xlink:href="#W"/><use transform="matrix(0.06172839506172839,0,0,0.06172839506172839,41.79012345679013,0)" xlink:href="#V"/><use transform="matrix(0.06172839506172839,0,0,0.06172839506172839,54.135802469135804,0)" xlink:href="#S"/></g><path d="M185-189c-5-48-123-54-124 2 14 75 158 14 163 119 3 78-121 87-175 55-17-10-28-26-33-46l33-7c5 56 141 63 141-1 0-78-155-14-162-118-5-82 145-84 179-34 5 7 8 16 11 25" id="ae"/><path d="M59-47c-2 24 18 29 38 22v24C64 9 27 4 27-40v-127H5v-23h24l9-43h21v43h35v23H59v120" id="af"/><path d="M141-36C126-15 110 5 73 4 37 3 15-17 15-53c-1-64 63-63 125-63 3-35-9-54-41-54-24 1-41 7-42 31l-33-3c5-37 33-52 76-52 45 0 72 20 72 64v82c-1 20 7 32 28 27v20c-31 9-61-2-59-35zM48-53c0 20 12 33 32 33 41-3 63-29 60-74-43 2-92-5-92 41" id="ag"/><path d="M114-163C36-179 61-72 57 0H25l-1-190h30c1 12-1 29 2 39 6-27 23-49 58-41v29" id="ah"/><g id="e"><use transform="matrix(0.05,0,0,0.05,0,0)" xlink:href="#ae"/><use transform="matrix(0.05,0,0,0.05,12,0)" xlink:href="#af"/><use transform="matrix(0.05,0,0,0.05,17,0)" xlink:href="#ag"/><use transform="matrix(0.05,0,0,0.05,27,0)" xlink:href="#ah"/><use transform="matrix(0.05,0,0,0.05,32.95,0)" xlink:href="#af"/></g><path d="M108 0H70L1-190h34L89-25l56-165h34" id="ai"/><path d="M24-231v-30h32v30H24zM24 0v-190h32V0H24" id="aj"/><path d="M84 4C-5 8 30-112 23-190h32v120c0 31 7 50 39 49 72-2 45-101 50-169h31l1 190h-30c-1-10 1-25-2-33-11 22-28 36-60 37" id="ak"/><path d="M100-194c63 0 86 42 84 106H49c0 40 14 67 53 68 26 1 43-12 49-29l28 8c-11 28-37 45-77 45C44 4 14-33 15-96c1-61 26-98 85-98zm52 81c6-60-76-77-97-28-3 7-6 17-6 28h103" id="al"/><path d="M24 0v-261h32V0H24" id="am"/><g id="f"><use transform="matrix(0.05,0,0,0.05,0,0)" xlink:href="#ai"/><use transform="matrix(0.05,0,0,0.05,9,0)" xlink:href="#aj"/><use transform="matrix(0.05,0,0,0.05,12.949999999999998,0)" xlink:href="#ah"/><use transform="matrix(0.05,0,0,0.05,18.9,0)" xlink:href="#af"/><use transform="matrix(0.05,0,0,0.05,23.9,0)" xlink:href="#ak"/><use transform="matrix(0.05,0,0,0.05,33.9,0)" xlink:href="#al"/><use transform="matrix(0.05,0,0,0.05,43.9,0)" xlink:href="#am"/></g><path d="M135-143c-3-34-86-38-87 0 15 53 115 12 119 90S17 21 10-45l28-5c4 36 97 45 98 0-10-56-113-15-118-90-4-57 82-63 122-42 12 7 21 19 24 35" id="an"/><path d="M210-169c-67 3-38 105-44 169h-31v-121c0-29-5-50-35-48C34-165 62-65 56 0H25l-1-190h30c1 10-1 24 2 32 10-44 99-50 107 0 11-21 27-35 58-36 85-2 47 119 55 194h-31v-121c0-29-5-49-35-48" id="ao"/><path d="M100-194c62-1 85 37 85 99 1 63-27 99-86 99S16-35 15-95c0-66 28-99 85-99zM99-20c44 1 53-31 53-75 0-43-8-75-51-75s-53 32-53 75 10 74 51 75" id="ap"/><path d="M117-194c89-4 53 116 60 194h-32v-121c0-31-8-49-39-48C34-167 62-67 57 0H25l-1-190h30c1 10-1 24 2 32 11-22 29-35 61-36" id="aq"/><g id="g"><use transform="matrix(0.05,0,0,0.05,0,0)" xlink:href="#an"/><use transform="matrix(0.05,0,0,0.05,9,0)" xlink:href="#aj"/><use transform="matrix(0.05,0,0,0.05,12.949999999999998,0)" xlink:href="#ao"/><use transform="matrix(0.05,0,0,0.05,27.899999999999995,0)" xlink:href="#ak"/><use transform="matrix(0.05,0,0,0.05,37.9,0)" xlink:href="#am"/><use transform="matrix(0.05,0,0,0.05,41.85,0)" xlink:href="#ag"/><use transform="matrix(0.05,0,0,0.05,51.85,0)" xlink:href="#af"/><use transform="matrix(0.05,0,0,0.05,56.85,0)" xlink:href="#aj"/><use transform="matrix(0.05,0,0,0.05,60.800000000000004,0)" xlink:href="#ap"/><use transform="matrix(0.05,0,0,0.05,70.80000000000001,0)" xlink:href="#aq"/></g><path d="M205 0l-28-72H64L36 0H1l101-248h38L239 0h-34zm-38-99l-47-123c-12 45-31 82-46 123h93" id="ar"/><path d="M101-234c-31-9-42 10-38 44h38v23H63V0H32v-167H5v-23h27c-7-52 17-82 69-68v24" id="as"/><g id="h"><use transform="matrix(0.05,0,0,0.05,0,0)" xlink:href="#ar"/><use transform="matrix(0.05,0,0,0.05,12,0)" xlink:href="#as"/><use transform="matrix(0.05,0,0,0.05,17,0)" xlink:href="#an"/><use transform="matrix(0.05,0,0,0.05,26,0)" xlink:href="#am"/><use transform="matrix(0.05,0,0,0.05,29.950000000000003,0)" xlink:href="#ak"/><use transform="matrix(0.05,0,0,0.05,39.95,0)" xlink:href="#af"/></g><path d="M30-248c87 1 191-15 191 75 0 78-77 80-158 76V0H30v-248zm33 125c57 0 124 11 124-50 0-59-68-47-124-48v98" id="at"/><path d="M181-161c11 16 11 39 14 66 9 87-81 123-140 81L37 7H8l32-38C30-47 27-69 25-95c-8-91 81-121 141-83l16-18h30zM109-20c57 4 58-63 49-114L73-35c7 11 20 15 36 15zm2-150c-56-3-57 65-48 113l85-99c-8-10-20-13-37-14" id="au"/><g id="i"><use transform="matrix(0.05,0,0,0.05,0,0)" xlink:href="#at"/><use transform="matrix(0.05,0,0,0.05,12,0)" xlink:href="#ah"/><use transform="matrix(0.05,0,0,0.05,17.95,0)" xlink:href="#au"/><use transform="matrix(0.05,0,0,0.05,28.899999999999995,0)" xlink:href="#ai"/></g><path d="M177-190C167-65 218 103 67 71c-23-6-38-20-44-43l32-5c15 47 100 32 89-28v-30C133-14 115 1 83 1 29 1 15-40 15-95c0-56 16-97 71-98 29-1 48 16 59 35 1-10 0-23 2-32h30zM94-22c36 0 50-32 50-73 0-42-14-75-50-75-39 0-46 34-46 75s6 73 46 73" id="av"/><g id="j"><use transform="matrix(0.05,0,0,0.05,0,0)" xlink:href="#aj"/><use transform="matrix(0.05,0,0,0.05,3.95,0)" xlink:href="#av"/><use transform="matrix(0.05,0,0,0.05,13.949999999999998,0)" xlink:href="#al"/><use transform="matrix(0.05,0,0,0.05,23.95,0)" xlink:href="#aq"/></g><path d="M137 0h-34L2-248h35l83 218 83-218h36" id="aw"/><g id="k"><use transform="matrix(0.05,0,0,0.05,0,0)" xlink:href="#aw"/><use transform="matrix(0.05,0,0,0.05,11.65,0)" xlink:href="#aj"/><use transform="matrix(0.05,0,0,0.05,15.600000000000001,0)" xlink:href="#an"/></g><g id="l"><use transform="matrix(0.05,0,0,0.05,0,0)" xlink:href="#ah"/><use transform="matrix(0.05,0,0,0.05,5.95,0)" xlink:href="#al"/><use transform="matrix(0.05,0,0,0.05,15.949999999999998,0)" xlink:href="#an"/><use transform="matrix(0.05,0,0,0.05,24.95,0)" xlink:href="#ak"/><use transform="matrix(0.05,0,0,0.05,34.95,0)" xlink:href="#am"/><use transform="matrix(0.05,0,0,0.05,38.900000000000006,0)" xlink:href="#af"/><use transform="matrix(0.05,0,0,0.05,43.900000000000006,0)" xlink:href="#ag"/><use transform="matrix(0.05,0,0,0.05,53.900000000000006,0)" xlink:href="#af"/><use transform="matrix(0.05,0,0,0.05,58.900000000000006,0)" xlink:href="#af"/><use transform="matrix(0.05,0,0,0.05,63.900000000000006,0)" xlink:href="#ag"/><use transform="matrix(0.05,0,0,0.05,73.9,0)" xlink:href="#ai"/><use transform="matrix(0.05,0,0,0.05,82.9,0)" xlink:href="#am"/><use transform="matrix(0.05,0,0,0.05,86.85000000000001,0)" xlink:href="#al"/></g><path d="M220-194c63 1 86 42 84 106H170c0 40 13 67 51 68 27 1 43-12 50-29l28 8c-11 29-37 44-78 45-38 0-62-16-74-46-14 27-36 45-76 46-37 0-59-20-59-57-1-64 63-63 126-63 3-35-8-55-41-54-25 0-41 8-44 31l-33-3c1-59 111-68 139-27 13-16 34-24 61-25zM78-20c42-2 63-28 60-74-43 2-94-4-94 41 0 20 13 33 34 33zm193-93c7-60-75-77-95-28-3 7-5 17-5 28h100" id="ax"/><g id="m"><use transform="matrix(0.05,0,0,0.05,0,0)" xlink:href="#aw"/><use transform="matrix(0.05,0,0,0.05,12,0)" xlink:href="#ax"/><use transform="matrix(0.05,0,0,0.05,28,0)" xlink:href="#am"/><use transform="matrix(0.05,0,0,0.05,31.950000000000003,0)" xlink:href="#av"/></g><path d="M85-194c31 0 48 13 60 33l-1-100h32l1 261h-30c-2-10 0-23-3-31C134-8 116 4 85 4 32 4 16-35 15-94c0-66 23-100 70-100zm9 24c-40 0-46 34-46 75 0 40 6 74 45 74 42 0 51-32 51-76 0-42-9-74-50-73" id="ay"/><path d="M179-190L93 31C79 59 56 82 12 73V49c39 6 53-20 64-50L1-190h34L92-34l54-156h33" id="az"/><g id="n"><use transform="matrix(0.05,0,0,0.05,0,0)" xlink:href="#ay"/><use transform="matrix(0.05,0,0,0.05,10,0)" xlink:href="#az"/><use transform="matrix(0.05,0,0,0.05,19,0)" xlink:href="#ah"/></g><path d="M33 0v-248h34V0H33" id="aA"/><g id="o"><use transform="matrix(0.05,0,0,0.05,0,0)" xlink:href="#aA"/><use transform="matrix(0.05,0,0,0.05,5,0)" xlink:href="#aq"/><use transform="matrix(0.05,0,0,0.05,15,0)" xlink:href="#as"/><use transform="matrix(0.05,0,0,0.05,20,0)" xlink:href="#ap"/><use transform="matrix(0.05,0,0,0.05,30,0)" xlink:href="#ah"/><use transform="matrix(0.05,0,0,0.05,35.95,0)" xlink:href="#ao"/><use transform="matrix(0.05,0,0,0.05,50.900000000000006,0)" xlink:href="#ag"/><use transform="matrix(0.05,0,0,0.05,60.900000000000006,0)" xlink:href="#af"/><use transform="matrix(0.05,0,0,0.05,65.9,0)" xlink:href="#aj"/><use transform="matrix(0.05,0,0,0.05,69.85000000000001,0)" xlink:href="#ap"/><use transform="matrix(0.05,0,0,0.05,79.85000000000001,0)" xlink:href="#aq"/></g><path d="M143 0L79-87 56-68V0H24v-261h32v163l83-92h37l-77 82L181 0h-38" id="aB"/><g id="p"><use transform="matrix(0.05,0,0,0.05,0,0)" xlink:href="#ap"/><use transform="matrix(0.05,0,0,0.05,10,0)" xlink:href="#ao"/><use transform="matrix(0.05,0,0,0.05,24.950000000000003,0)" xlink:href="#aB"/><use transform="matrix(0.05,0,0,0.05,33.95,0)" xlink:href="#ah"/><use transform="matrix(0.05,0,0,0.05,39.900000000000006,0)" xlink:href="#aj"/><use transform="matrix(0.05,0,0,0.05,43.85000000000001,0)" xlink:href="#aq"/><use transform="matrix(0.05,0,0,0.05,53.85,0)" xlink:href="#av"/></g><path d="M63-220v92h138v28H63V0H30v-248h175v28H63" id="aC"/><g id="q"><use transform="matrix(0.05,0,0,0.05,0,0)" xlink:href="#aC"/><use transform="matrix(0.05,0,0,0.05,10.950000000000001,0)" xlink:href="#ap"/><use transform="matrix(0.05,0,0,0.05,20.950000000000003,0)" xlink:href="#ay"/><use transform="matrix(0.05,0,0,0.05,30.950000000000003,0)" xlink:href="#ah"/></g><path d="M153-248C145-148 188 4 80 4 36 3 13-21 6-62l32-5c4 25 16 42 43 43 27 0 39-20 39-49v-147H72v-28h81" id="aD"/><g id="r"><use transform="matrix(0.05,0,0,0.05,0,0)" xlink:href="#aD"/><use transform="matrix(0.05,0,0,0.05,9,0)" xlink:href="#ak"/><use transform="matrix(0.05,0,0,0.05,19,0)" xlink:href="#an"/><use transform="matrix(0.05,0,0,0.05,28,0)" xlink:href="#af"/><use transform="matrix(0.05,0,0,0.05,33,0)" xlink:href="#al"/><use transform="matrix(0.05,0,0,0.05,43,0)" xlink:href="#ah"/></g><path d="M127-220V0H93v-220H8v-28h204v28h-85" id="aE"/><path d="M115-194c55 1 70 41 70 98S169 2 115 4C84 4 66-9 55-30l1 105H24l-1-265h31l2 30c10-21 28-34 59-34zm-8 174c40 0 45-34 45-75s-6-73-45-74c-42 0-51 32-51 76 0 43 10 73 51 73" id="aF"/><g id="s"><use transform="matrix(0.05,0,0,0.05,0,0)" xlink:href="#aE"/><use transform="matrix(0.05,0,0,0.05,8.950000000000001,0)" xlink:href="#al"/><use transform="matrix(0.05,0,0,0.05,18.950000000000003,0)" xlink:href="#ao"/><use transform="matrix(0.05,0,0,0.05,33.900000000000006,0)" xlink:href="#aF"/><use transform="matrix(0.05,0,0,0.05,43.900000000000006,0)" xlink:href="#al"/><use transform="matrix(0.05,0,0,0.05,53.900000000000006,0)" xlink:href="#ah"/><use transform="matrix(0.05,0,0,0.05,59.85,0)" xlink:href="#af"/><use transform="matrix(0.05,0,0,0.05,64.85000000000001,0)" xlink:href="#ak"/><use transform="matrix(0.05,0,0,0.05,74.85000000000001,0)" xlink:href="#ah"/></g><path d="M233-177c-1 41-23 64-60 70L243 0h-38l-65-103H63V0H30v-248c88 3 205-21 203 71zM63-129c60-2 137 13 137-47 0-61-80-42-137-45v92" id="aG"/><g id="t"><use transform="matrix(0.05,0,0,0.05,0,0)" xlink:href="#aG"/><use transform="matrix(0.05,0,0,0.05,12.950000000000001,0)" xlink:href="#al"/><use transform="matrix(0.05,0,0,0.05,22.950000000000003,0)" xlink:href="#aq"/><use transform="matrix(0.05,0,0,0.05,32.95,0)" xlink:href="#an"/></g><g id="u"><use transform="matrix(0.05,0,0,0.05,0,0)" xlink:href="#ag"/><use transform="matrix(0.05,0,0,0.05,10,0)" xlink:href="#aq"/><use transform="matrix(0.05,0,0,0.05,20,0)" xlink:href="#am"/><use transform="matrix(0.05,0,0,0.05,23.95,0)" xlink:href="#ax"/><use transform="matrix(0.05,0,0,0.05,39.95,0)" xlink:href="#av"/></g><g id="v"><use transform="matrix(0.05,0,0,0.05,0,0)" xlink:href="#ap"/><use transform="matrix(0.05,0,0,0.05,10,0)" xlink:href="#aF"/><use transform="matrix(0.05,0,0,0.05,20,0)" xlink:href="#ay"/><use transform="matrix(0.05,0,0,0.05,30,0)" xlink:href="#ah"/><use transform="matrix(0.05,0,0,0.05,35.95,0)" xlink:href="#ax"/><use transform="matrix(0.05,0,0,0.05,51.95,0)" xlink:href="#af"/><use transform="matrix(0.05,0,0,0.05,56.95,0)" xlink:href="#af"/><use transform="matrix(0.05,0,0,0.05,61.95,0)" xlink:href="#al"/><use transform="matrix(0.05,0,0,0.05,71.95,0)" xlink:href="#am"/><use transform="matrix(0.05,0,0,0.05,75.9,0)" xlink:href="#an"/><use transform="matrix(0.05,0,0,0.05,84.9,0)" xlink:href="#al"/><use transform="matrix(0.05,0,0,0.05,94.9,0)" xlink:href="#an"/><use transform="matrix(0.05,0,0,0.05,103.9,0)" xlink:href="#ao"/><use transform="matrix(0.05,0,0,0.05,118.85000000000001,0)" xlink:href="#al"/><use transform="matrix(0.05,0,0,0.05,128.85000000000002,0)" xlink:href="#af"/><use transform="matrix(0.05,0,0,0.05,133.85000000000002,0)" xlink:href="#ap"/><use transform="matrix(0.05,0,0,0.05,143.85000000000002,0)" xlink:href="#ay"/><use transform="matrix(0.05,0,0,0.05,153.85000000000002,0)" xlink:href="#al"/></g><g id="w"><use transform="matrix(0.05,0,0,0.05,0,0)" xlink:href="#ai"/><use transform="matrix(0.05,0,0,0.05,9,0)" xlink:href="#ax"/><use transform="matrix(0.05,0,0,0.05,25,0)" xlink:href="#am"/><use transform="matrix(0.05,0,0,0.05,28.950000000000003,0)" xlink:href="#av"/></g><g id="x"><use transform="matrix(0.05,0,0,0.05,0,0)" xlink:href="#as"/><use transform="matrix(0.05,0,0,0.05,5,0)" xlink:href="#ap"/><use transform="matrix(0.05,0,0,0.05,15,0)" xlink:href="#ay"/><use transform="matrix(0.05,0,0,0.05,25,0)" xlink:href="#ay"/><use transform="matrix(0.05,0,0,0.05,35,0)" xlink:href="#al"/><use transform="matrix(0.05,0,0,0.05,45,0)" xlink:href="#ah"/></g><path fill="#333" d="M127-220V0H93v-220H8v-28h204v28h-85" id="aH"/><path fill="#333" d="M85-194c31 0 48 13 60 33l-1-100h32l1 261h-30c-2-10 0-23-3-31C134-8 116 4 85 4 32 4 16-35 15-94c0-66 23-100 70-100zm9 24c-40 0-46 34-46 75 0 40 6 74 45 74 42 0 51-32 51-76 0-42-9-74-50-73" id="aI"/><g id="y"><use transform="matrix(0.06172839506172839,0,0,0.06172839506172839,0,0)" xlink:href="#aH"/><use transform="matrix(0.06172839506172839,0,0,0.06172839506172839,12.716049382716047,0)" xlink:href="#R"/><use transform="matrix(0.06172839506172839,0,0,0.06172839506172839,17.592592592592588,0)" xlink:href="#aI"/><use transform="matrix(0.06172839506172839,0,0,0.06172839506172839,29.938271604938265,0)" xlink:href="#V"/><use transform="matrix(0.06172839506172839,0,0,0.06172839506172839,42.28395061728394,0)" xlink:href="#Z"/></g><path d="M143 4C61 4 22-44 18-125c-5-107 100-154 193-111 17 8 29 25 37 43l-32 9c-13-25-37-40-76-40-61 0-88 39-88 99 0 61 29 100 91 101 35 0 62-11 79-27v-45h-74v-28h105v86C228-13 192 4 143 4" id="aJ"/><g id="z"><use transform="matrix(0.05,0,0,0.05,0,0)" xlink:href="#aJ"/><use transform="matrix(0.05,0,0,0.05,14,0)" xlink:href="#au"/><use transform="matrix(0.05,0,0,0.05,24.950000000000003,0)" xlink:href="#ah"/></g><path d="M115-194c53 0 69 39 70 98 0 66-23 100-70 100C84 3 66-7 56-30L54 0H23l1-261h32v101c10-23 28-34 59-34zm-8 174c40 0 45-34 45-75 0-40-5-75-45-74-42 0-51 32-51 76 0 43 10 73 51 73" id="aK"/><g id="A"><use transform="matrix(0.05,0,0,0.05,0,0)" xlink:href="#aK"/><use transform="matrix(0.05,0,0,0.05,10,0)" xlink:href="#al"/><use transform="matrix(0.05,0,0,0.05,20,0)" xlink:href="#an"/><use transform="matrix(0.05,0,0,0.05,29,0)" xlink:href="#aB"/><use transform="matrix(0.05,0,0,0.05,38,0)" xlink:href="#aj"/><use transform="matrix(0.05,0,0,0.05,41.95,0)" xlink:href="#ay"/><use transform="matrix(0.05,0,0,0.05,51.95,0)" xlink:href="#af"/></g><path d="M160-131c35 5 61 23 61 61C221 17 115-2 30 0v-248c76 3 177-17 177 60 0 33-19 50-47 57zm-97-11c50-1 110 9 110-42 0-47-63-36-110-37v79zm0 115c55-2 124 14 124-45 0-56-70-42-124-44v89" id="aL"/><g id="B"><use transform="matrix(0.05,0,0,0.05,0,0)" xlink:href="#aL"/><use transform="matrix(0.05,0,0,0.05,12,0)" xlink:href="#am"/><use transform="matrix(0.05,0,0,0.05,15.949999999999998,0)" xlink:href="#aj"/><use transform="matrix(0.05,0,0,0.05,19.9,0)" xlink:href="#ai"/></g><g id="C"><use transform="matrix(0.05,0,0,0.05,0,0)" xlink:href="#an"/><use transform="matrix(0.05,0,0,0.05,9,0)" xlink:href="#ak"/><use transform="matrix(0.05,0,0,0.05,19,0)" xlink:href="#am"/><use transform="matrix(0.05,0,0,0.05,22.95,0)" xlink:href="#af"/><use transform="matrix(0.05,0,0,0.05,27.950000000000003,0)" xlink:href="#al"/><use transform="matrix(0.05,0,0,0.05,37.95,0)" xlink:href="#aq"/></g><path d="M137-103V0h-34v-103L8-248h37l75 118 75-118h37" id="aM"/><g id="D"><use transform="matrix(0.05,0,0,0.05,0,0)" xlink:href="#aM"/><use transform="matrix(0.05,0,0,0.05,12,0)" xlink:href="#aq"/><use transform="matrix(0.05,0,0,0.05,22,0)" xlink:href="#av"/><use transform="matrix(0.05,0,0,0.05,32,0)" xlink:href="#am"/></g><g id="E"><use transform="matrix(0.05,0,0,0.05,0,0)" xlink:href="#as"/><use transform="matrix(0.05,0,0,0.05,5,0)" xlink:href="#aj"/><use transform="matrix(0.05,0,0,0.05,8.95,0)" xlink:href="#an"/><use transform="matrix(0.05,0,0,0.05,17.95,0)" xlink:href="#aB"/></g><path fill="#333" d="M100-194c62-1 85 37 85 99 1 63-27 99-86 99S16-35 15-95c0-66 28-99 85-99zM99-20c44 1 53-31 53-75 0-43-8-75-51-75s-53 32-53 75 10 74 51 75" id="aN"/><g id="F"><use transform="matrix(0.06172839506172839,0,0,0.06172839506172839,0,0)" xlink:href="#Q"/><use transform="matrix(0.06172839506172839,0,0,0.06172839506172839,13.580246913580245,0)" xlink:href="#V"/><use transform="matrix(0.06172839506172839,0,0,0.06172839506172839,25.925925925925924,0)" xlink:href="#S"/><use transform="matrix(0.06172839506172839,0,0,0.06172839506172839,33.2716049382716,0)" xlink:href="#ab"/><use transform="matrix(0.06172839506172839,0,0,0.06172839506172839,44.38271604938271,0)" xlink:href="#R"/><use transform="matrix(0.06172839506172839,0,0,0.06172839506172839,49.25925925925925,0)" xlink:href="#aN"/><use transform="matrix(0.06172839506172839,0,0,0.06172839506172839,61.60493827160493,0)" xlink:href="#Z"/></g><path fill="#333" d="M27 0v-27h64v-190l-56 39v-29l58-41h29v221h61V0H27" id="aO"/><path fill="#333" d="M33 0v-38h34V0H33" id="aP"/><path fill="#333" d="M101-251c68 0 85 55 85 127S166 4 100 4C33 4 14-52 14-124c0-73 17-127 87-127zm-1 229c47 0 54-49 54-102s-4-102-53-102c-51 0-55 48-55 102 0 53 5 102 54 102" id="aQ"/><g id="G"><use transform="matrix(0.06172839506172839,0,0,0.06172839506172839,0,0)" xlink:href="#aO"/><use transform="matrix(0.06172839506172839,0,0,0.06172839506172839,12.345679012345679,0)" xlink:href="#aP"/><use transform="matrix(0.06172839506172839,0,0,0.06172839506172839,18.51851851851852,0)" xlink:href="#aQ"/></g><path d="M232-93c-1 65-40 97-104 97C67 4 28-28 28-90v-158h33c8 89-33 224 67 224 102 0 64-133 71-224h33v155" id="aR"/><path d="M16-82v-28h88v28H16" id="aS"/><path d="M96-169c-40 0-48 33-48 73s9 75 48 75c24 0 41-14 43-38l32 2c-6 37-31 61-74 61-59 0-76-41-82-99-10-93 101-131 147-64 4 7 5 14 7 22l-32 3c-4-21-16-35-41-35" id="aT"/><g id="I"><use transform="matrix(0.0685185185185185,0,0,0.0685185185185185,0,0)" xlink:href="#aR"/><use transform="matrix(0.0685185185185185,0,0,0.0685185185185185,17.746296296296293,0)" xlink:href="#an"/><use transform="matrix(0.0685185185185185,0,0,0.0685185185185185,30.079629629629622,0)" xlink:href="#al"/><use transform="matrix(0.0685185185185185,0,0,0.0685185185185185,43.783333333333324,0)" xlink:href="#aS"/><use transform="matrix(0.0685185185185185,0,0,0.0685185185185185,51.93703703703703,0)" xlink:href="#aT"/><use transform="matrix(0.0685185185185185,0,0,0.0685185185185185,64.27037037037036,0)" xlink:href="#ag"/><use transform="matrix(0.0685185185185185,0,0,0.0685185185185185,77.97407407407405,0)" xlink:href="#an"/><use transform="matrix(0.0685185185185185,0,0,0.0685185185185185,90.30740740740738,0)" xlink:href="#al"/></g><path d="M30 0v-248h33v221h125V0H30" id="aU"/><g id="J"><use transform="matrix(0.05,0,0,0.05,0,0)" xlink:href="#aU"/><use transform="matrix(0.05,0,0,0.05,10,0)" xlink:href="#ag"/><use transform="matrix(0.05,0,0,0.05,20,0)" xlink:href="#an"/><use transform="matrix(0.05,0,0,0.05,29,0)" xlink:href="#af"/></g><g id="K"><use transform="matrix(0.05,0,0,0.05,0,0)" xlink:href="#aR"/><use transform="matrix(0.05,0,0,0.05,12.950000000000001,0)" xlink:href="#aF"/><use transform="matrix(0.05,0,0,0.05,22.950000000000003,0)" xlink:href="#ay"/><use transform="matrix(0.05,0,0,0.05,32.95,0)" xlink:href="#ag"/><use transform="matrix(0.05,0,0,0.05,42.95,0)" xlink:href="#af"/><use transform="matrix(0.05,0,0,0.05,47.95,0)" xlink:href="#al"/><use transform="matrix(0.05,0,0,0.05,57.95,0)" xlink:href="#ay"/></g><path d="M30-248c118-7 216 8 213 122C240-48 200 0 122 0H30v-248zM63-27c89 8 146-16 146-99s-60-101-146-95v194" id="aV"/><g id="L"><use transform="matrix(0.05,0,0,0.05,0,0)" xlink:href="#aV"/><use transform="matrix(0.05,0,0,0.05,12.950000000000001,0)" xlink:href="#al"/><use transform="matrix(0.05,0,0,0.05,22.950000000000003,0)" xlink:href="#aT"/></g><path d="M54-142c48-35 137-8 131 61C196 18 31 33 14-55l32-4c7 23 22 37 52 37 35-1 51-22 54-58 4-55-73-65-99-34H22l8-134h141v27H59" id="aW"/><path d="M68-38c1 34 0 65-14 84H32c9-13 17-26 17-46H33v-38h35" id="aX"/><g id="M"><use transform="matrix(0.05,0,0,0.05,0,0)" xlink:href="#aW"/><use transform="matrix(0.05,0,0,0.05,10,0)" xlink:href="#aX"/></g><path d="M101-251c82-7 93 87 43 132L82-64C71-53 59-42 53-27h129V0H18c2-99 128-94 128-182 0-28-16-43-45-43s-46 15-49 41l-32-3c6-41 34-60 81-64" id="aY"/><path d="M101-251c68 0 85 55 85 127S166 4 100 4C33 4 14-52 14-124c0-73 17-127 87-127zm-1 229c47 0 54-49 54-102s-4-102-53-102c-51 0-55 48-55 102 0 53 5 102 54 102" id="aZ"/><path d="M27 0v-27h64v-190l-56 39v-29l58-41h29v221h61V0H27" id="ba"/><g id="N"><use transform="matrix(0.05,0,0,0.05,0,0)" xlink:href="#aY"/><use transform="matrix(0.05,0,0,0.05,10,0)" xlink:href="#aZ"/><use transform="matrix(0.05,0,0,0.05,20,0)" xlink:href="#aY"/><use transform="matrix(0.05,0,0,0.05,30,0)" xlink:href="#ba"/></g><path d="M33-154v-36h34v36H33zM33 0v-36h34V0H33" id="bb"/><g id="O"><use transform="matrix(0.05,0,0,0.05,0,0)" xlink:href="#aY"/><use transform="matrix(0.05,0,0,0.05,10,0)" xlink:href="#bb"/><use transform="matrix(0.05,0,0,0.05,15,0)" xlink:href="#aY"/><use transform="matrix(0.05,0,0,0.05,25,0)" xlink:href="#ba"/></g><path d="M240 0l2-218c-23 76-54 145-80 218h-23L58-218 59 0H30v-248h44l77 211c21-75 51-140 76-211h43V0h-30" id="bc"/><g id="P"><use transform="matrix(0.05,0,0,0.05,0,0)" xlink:href="#at"/><use transform="matrix(0.05,0,0,0.05,12,0)" xlink:href="#bc"/></g></defs></g></svg>